<?xml version="1.0" encoding="utf-8"?>
<!-- Generator: Adobe Illustrator 15.1.0, SVG Export Plug-In  -->
<!DOCTYPE svg PUBLIC "-//W3C//DTD SVG 1.1//EN" "http://www.w3.org/Graphics/SVG/1.1/DTD/svg11.dtd" [
	<!ENTITY ns_flows "http://ns.adobe.com/Flows/1.0/">
]>
<svg version="1.1"
	 xmlns="http://www.w3.org/2000/svg" xmlns:xlink="http://www.w3.org/1999/xlink" xmlns:a="http://ns.adobe.com/AdobeSVGViewerExtensions/3.0/"
	 x="0px" y="0px" width="167px" height="167px" viewBox="0 0 167 167" overflow="visible" enable-background="new 0 0 167 167"
	 xml:space="preserve">
<defs>
</defs>
<path display="none" fill="#1A1515" d="M133.279,74.24c-26.994-16.031-71.52-17.505-97.289-9.684
	c-4.139,1.255-8.515-1.081-9.769-5.219c-1.254-4.14,1.08-8.513,5.221-9.771c29.581-8.98,78.755-7.245,109.831,11.202
	c3.723,2.209,4.944,7.016,2.737,10.732C141.803,75.223,136.992,76.45,133.279,74.24L133.279,74.24z M132.396,97.984
	c-1.893,3.073-5.911,4.036-8.98,2.15C100.911,86.3,66.593,82.293,39.968,90.375c-3.453,1.043-7.1-0.903-8.148-4.35
	c-1.041-3.453,0.907-7.093,4.354-8.144c30.415-9.229,68.226-4.759,94.074,11.126C133.316,90.898,134.282,94.918,132.396,97.984
	L132.396,97.984z M122.148,120.788c-1.504,2.467-4.718,3.241-7.176,1.736c-19.666-12.019-44.417-14.733-73.567-8.074
	c-2.809,0.644-5.609-1.117-6.25-3.926c-0.644-2.809,1.11-5.607,3.926-6.248c31.899-7.293,59.263-4.154,81.336,9.334
	C122.878,115.113,123.653,118.328,122.148,120.788L122.148,120.788z M83.743,0C37.494,0,0,37.493,0,83.742
	c0,46.254,37.494,83.745,83.743,83.745c46.251,0,83.743-37.491,83.743-83.745C167.486,37.493,129.995,0,83.743,0L83.743,0z"/>
<path fill="#212121" d="M133.279,74.24c-26.994-16.031-71.52-17.505-97.289-9.684c-4.139,1.255-8.515-1.081-9.769-5.219
	c-1.254-4.14,1.08-8.513,5.221-9.771c29.581-8.98,78.755-7.245,109.831,11.202c3.723,2.209,4.944,7.016,2.737,10.732
	C141.803,75.223,136.992,76.45,133.279,74.24L133.279,74.24z M132.396,97.984c-1.893,3.073-5.911,4.036-8.98,2.15
	C100.911,86.3,66.593,82.293,39.968,90.375c-3.453,1.043-7.1-0.903-8.148-4.35c-1.041-3.453,0.907-7.093,4.354-8.144
	c30.415-9.229,68.226-4.759,94.074,11.126C133.316,90.898,134.282,94.918,132.396,97.984L132.396,97.984z M122.148,120.788
	c-1.504,2.467-4.718,3.241-7.176,1.736c-19.666-12.019-44.417-14.733-73.567-8.074c-2.809,0.644-5.609-1.117-6.25-3.926
	c-0.644-2.809,1.11-5.607,3.926-6.248c31.899-7.293,59.263-4.154,81.336,9.334C122.878,115.113,123.653,118.328,122.148,120.788
	L122.148,120.788z M83.743,0C37.494,0,0,37.493,0,83.742c0,46.254,37.494,83.745,83.743,83.745
	c46.251,0,83.743-37.491,83.743-83.745C167.486,37.493,129.995,0,83.743,0L83.743,0z"/>
</svg>
