<?xml version="1.0" encoding="utf-8"?>
<!-- Generator: Adobe Illustrator 15.1.0, SVG Export Plug-In  -->
<!DOCTYPE svg PUBLIC "-//W3C//DTD SVG 1.1//EN" "http://www.w3.org/Graphics/SVG/1.1/DTD/svg11.dtd" [
	<!ENTITY ns_flows "http://ns.adobe.com/Flows/1.0/">
]>
<svg version="1.1"
	 xmlns="http://www.w3.org/2000/svg" xmlns:xlink="http://www.w3.org/1999/xlink" xmlns:a="http://ns.adobe.com/AdobeSVGViewerExtensions/3.0/"
	 x="0px" y="0px" width="253px" height="204px" viewBox="0 0 253 204" overflow="visible" enable-background="new 0 0 253 204"
	 xml:space="preserve">
<defs>
</defs>
<path fill="#212120" stroke="#212120" stroke-miterlimit="10" d="M80.723,203.678c94.344,0,145.936-78.161,145.936-145.937
	c0-2.221-0.045-4.432-0.146-6.631c10.014-7.238,18.72-16.271,25.588-26.557c-9.191,4.082-19.081,6.834-29.456,8.074
	c10.59-6.348,18.72-16.396,22.554-28.372c-9.912,5.875-20.885,10.147-32.567,12.449C203.271,6.735,189.94,0.5,175.19,0.5
	c-28.328,0-51.299,22.971-51.299,51.288c0,4.025,0.451,7.939,1.33,11.695C82.595,61.34,44.794,40.929,19.5,9.894
	c-4.409,7.578-6.947,16.387-6.947,25.779c0,17.796,9.056,33.505,22.824,42.695c-8.412-0.26-16.317-2.571-23.23-6.418
	c-0.011,0.215-0.011,0.43-0.011,0.654c0,24.844,17.682,45.582,41.149,50.285c-4.307,1.172-8.841,1.805-13.521,1.805
	c-3.304,0-6.518-0.327-9.642-0.926c6.53,20.378,25.464,35.207,47.916,35.625c-17.558,13.758-39.672,21.955-63.704,21.955
	c-4.139,0-8.221-0.235-12.235-0.71C24.8,195.186,51.752,203.678,80.723,203.678"/>
</svg>
