<?xml version="1.0" encoding="utf-8"?>
<!-- Generator: Adobe Illustrator 15.1.0, SVG Export Plug-In  -->
<!DOCTYPE svg PUBLIC "-//W3C//DTD SVG 1.1//EN" "http://www.w3.org/Graphics/SVG/1.1/DTD/svg11.dtd" [
	<!ENTITY ns_flows "http://ns.adobe.com/Flows/1.0/">
]>
<svg version="1.1"
	 xmlns="http://www.w3.org/2000/svg" xmlns:xlink="http://www.w3.org/1999/xlink" xmlns:a="http://ns.adobe.com/AdobeSVGViewerExtensions/3.0/"
	 x="0px" y="0px" width="501px" height="209px" viewBox="0 0 501 209" overflow="visible" enable-background="new 0 0 501 209"
	 xml:space="preserve">
<defs>
</defs>
<path display="none" d="M498.041,45.104c0,0-2.918-20.485-11.871-29.506C474.816,3.759,462.086,3.699,456.25,3.007
	C414.465,0,351.785,0,351.785,0h-0.131c0,0-62.682,0-104.466,3.007c-5.838,0.692-18.563,0.752-29.92,12.591
	c-8.954,9.021-11.868,29.506-11.868,29.506s-2.986,24.055-2.986,48.112v22.554c0,24.054,2.986,48.109,2.986,48.109
	s2.914,20.483,11.868,29.506c11.357,11.842,26.281,11.465,32.925,12.705c23.889,2.282,101.526,2.987,101.526,2.987
	s62.746-0.094,104.531-3.099c5.836-0.694,18.566-0.752,29.92-12.594c8.953-9.022,11.871-29.506,11.871-29.506
	s2.982-24.056,2.982-48.109V93.216C501.023,69.159,498.041,45.104,498.041,45.104L498.041,45.104z"/>
<path display="none" d="M187,169.196h-19v-11c-7.203,8.256-13.309,12.426-19.965,12.426c-5.84,0-9.895-2.755-11.926-7.731
	c-1.234-3.027-2.109-7.752-2.109-14.694v-80h19v75c0,4.241,0,6,0,7c0.443,2.808,1.635,3.832,4.051,3.832
	c3.637,0,6.928-3.16,10.949-8.832v-77h19V169.196L187,169.196z"/>
<path display="none" d="M101,139.196c1,10-2.102,14.962-8.001,14.962S84,149.196,85,139.196v-40c-1-10,2.1-14.687,8-14.687
	s9.01,4.687,8.01,14.687L101,139.196L101,139.196z M120,101.196c0-10.793-2.168-18.898-6-24c-5.062-6.908-13-9.736-21-9.736
	c-9.055,0-15.946,2.828-21,9.736c-3.893,5.102-5.981,13.294-5.981,24.088L66,137.196c0,10.733,1.857,18.149,5.75,23.2
	C76.805,167.284,85,170.934,93,170.934s16.339-3.649,21.4-10.537c3.832-5.051,5.6-12.467,5.6-23.2V101.196L120,101.196z"/>
<path display="none" d="M45,114.196v55H25v-55c0,0-20.725-67.431-25-80h21l14.035,52.675L49,34.196h21L45,114.196L45,114.196z"/>
<path display="none" fill="#FFFFFF" d="M440,96.154c0-9.345,2.562-11.894,8.609-11.894c6.002,0,8.391,2.777,8.391,12.019v10.917
	l-17,0.019V96.154L440,96.154z M476.035,122.196l-0.004-20.443c0-10.68-2.104-18.493-5.889-23.547
	c-5.074-6.838-12.283-10.457-21.365-10.457c-9.242,0-16.451,3.619-21.688,10.457c-3.846,5.055-6.09,13.311-6.09,23.991v35
	c0,10.618,2.467,18.053,6.312,23.053c5.234,6.828,12.443,10.236,21.914,10.236c9.459,0,16.889-3.576,21.896-10.832
	c2.201-3.203,3.623-6.834,4.234-10.847c0.162-1.813,0.643-5.942,0.643-11.776v-2.834h-18.999c0,7.264,0.032,11.582-0.136,12.569
	c-1.033,4.838-3.631,7.263-8.088,7.263c-6.215,0-8.84-4.646-8.777-13.874v-17.958H476.035L476.035,122.196z"/>
<path display="none" fill="#FFFFFF" d="M390,140.196c0,10-2.357,13.832-7.578,13.832c-2.98,0-6.415-1.534-9.443-4.562L373,88.821
	c3.027-2.988,6.441-4.561,9.422-4.561c5.221,0,7.578,2.936,7.578,12.936V140.196L390,140.196z M392.107,67.592
	c-6.66,0-13.28,4.096-19.129,11.292L373,35.196h-18v134h18l0.025-10.068c6.049,7.484,12.645,11.357,19.082,11.357
	c7.209,0,12.477-3.859,14.893-11.289c1.209-4.236,2-10.759,2-20v-40c0-9.465-1.213-15.936-2.422-19.956
	C404.162,71.756,399.316,67.592,392.107,67.592L392.107,67.592z"/>
<path display="none" fill="#FFFFFF" d="M340,169.196h-19v-11c-7.203,8.256-13.309,12.426-19.965,12.426
	c-5.84,0-9.896-2.755-11.926-7.731c-1.234-3.027-2.109-7.752-2.109-14.694v-79h19v74c0,4.241,0,6,0,7
	c0.443,2.808,1.635,3.832,4.051,3.832c3.637,0,6.928-3.16,10.949-8.832v-76h19V169.196L340,169.196z"/>
<polygon display="none" fill="#FFFFFF" points="268,169.196 248,169.196 248,54.196 227,54.196 227,35.217 290,35.196 290,54.196 
	268,54.196 268,169.196 "/>
<path fill="#212121" d="M498.041,45.104c0,0-2.918-20.485-11.871-29.506C474.816,3.759,462.086,3.699,456.25,3.007
	C414.465,0,351.785,0,351.785,0h-0.131c0,0-62.682,0-104.466,3.007c-5.838,0.692-18.563,0.752-29.92,12.591
	c-8.954,9.021-11.868,29.506-11.868,29.506s-2.986,24.055-2.986,48.112v22.554c0,24.054,2.986,48.109,2.986,48.109
	s2.914,20.483,11.868,29.506c11.357,11.842,26.281,11.465,32.925,12.705c23.889,2.282,101.526,2.987,101.526,2.987
	s62.746-0.094,104.531-3.099c5.836-0.694,18.566-0.752,29.92-12.594c8.953-9.022,11.871-29.506,11.871-29.506
	s2.982-24.056,2.982-48.109V93.216C501.023,69.159,498.041,45.104,498.041,45.104L498.041,45.104z"/>
<path fill="#212121" d="M187,169.196h-19v-11c-7.203,8.256-13.309,12.426-19.965,12.426c-5.84,0-9.895-2.755-11.926-7.731
	c-1.234-3.027-2.109-7.752-2.109-14.694v-80h19v75c0,4.241,0,6,0,7c0.443,2.808,1.635,3.832,4.051,3.832
	c3.637,0,6.928-3.16,10.949-8.832v-77h19V169.196L187,169.196z"/>
<path fill="#212121" d="M101,139.196c1,10-2.102,14.962-8.001,14.962S84,149.196,85,139.196v-40c-1-10,2.1-14.687,8-14.687
	s9.01,4.687,8.01,14.687L101,139.196L101,139.196z M120,101.196c0-10.793-2.168-18.898-6-24c-5.062-6.908-13-9.736-21-9.736
	c-9.055,0-15.946,2.828-21,9.736c-3.893,5.102-5.981,13.294-5.981,24.088L66,137.196c0,10.733,1.857,18.149,5.75,23.2
	C76.805,167.284,85,170.934,93,170.934s16.339-3.649,21.4-10.537c3.832-5.051,5.6-12.467,5.6-23.2V101.196L120,101.196z"/>
<path fill="#212121" d="M45,114.196v55H25v-55c0,0-20.725-67.431-25-80h21l14.035,52.675L49,34.196h21L45,114.196L45,114.196z"/>
<path fill="#FFFFFF" d="M440,96.154c0-9.345,2.562-11.894,8.609-11.894c6.002,0,8.391,2.777,8.391,12.019v10.917l-17,0.019V96.154
	L440,96.154z M476.035,122.196l-0.004-20.443c0-10.68-2.104-18.493-5.889-23.547c-5.074-6.838-12.283-10.457-21.365-10.457
	c-9.242,0-16.451,3.619-21.688,10.457c-3.846,5.055-6.09,13.311-6.09,23.991v35c0,10.618,2.467,18.053,6.312,23.053
	c5.234,6.828,12.443,10.236,21.914,10.236c9.459,0,16.889-3.576,21.896-10.832c2.201-3.203,3.623-6.834,4.234-10.847
	c0.162-1.813,0.643-5.942,0.643-11.776v-2.834h-18.999c0,7.264,0.032,11.582-0.136,12.569c-1.033,4.838-3.631,7.263-8.088,7.263
	c-6.215,0-8.84-4.646-8.777-13.874v-17.958H476.035L476.035,122.196z"/>
<path fill="#FFFFFF" d="M390,140.196c0,10-2.357,13.832-7.578,13.832c-2.98,0-6.415-1.534-9.443-4.562L373,88.821
	c3.027-2.988,6.441-4.561,9.422-4.561c5.221,0,7.578,2.936,7.578,12.936V140.196L390,140.196z M392.107,67.592
	c-6.66,0-13.28,4.096-19.129,11.292L373,35.196h-18v134h18l0.025-10.068c6.049,7.484,12.645,11.357,19.082,11.357
	c7.209,0,12.477-3.859,14.893-11.289c1.209-4.236,2-10.759,2-20v-40c0-9.465-1.213-15.936-2.422-19.956
	C404.162,71.756,399.316,67.592,392.107,67.592L392.107,67.592z"/>
<path fill="#FFFFFF" d="M340,169.196h-19v-11c-7.203,8.256-13.309,12.426-19.965,12.426c-5.84,0-9.896-2.755-11.926-7.731
	c-1.234-3.027-2.109-7.752-2.109-14.694v-79h19v74c0,4.241,0,6,0,7c0.443,2.808,1.635,3.832,4.051,3.832
	c3.637,0,6.928-3.16,10.949-8.832v-76h19V169.196L340,169.196z"/>
<polygon fill="#FFFFFF" points="268,169.196 248,169.196 248,54.196 227,54.196 227,35.217 290,35.196 290,54.196 268,54.196 
	268,169.196 "/>
</svg>
